<?xml version="1.0" encoding="UTF-8"?>
<svg xmlns="http://www.w3.org/2000/svg" width="262.537px" height="68.38px" viewBox="0 0 262.537 68.38"><g fill="#444f50">
<polygon points="12.83,53.351 12.83,14.541 22.586,53.351 43.451,53.351 53.234,14.541 53.234,53.351 66.068,53.351 66.068,-0.017 45.352,-0.017 33.082,46.642 20.67,-0.017 0,-0.017 0,53.351"/>
<path d="M163.863,38.128h-3.418V25.73c0-1.592-0.229-2.723-0.686-3.397c-0.461-0.675-1.225-1.012-2.297-1.012 c-1.652,0-3.27,1.022-4.859,3.074v13.733h-3.398V25.73c0-1.592-0.23-2.723-0.688-3.397s-1.229-1.012-2.311-1.012 c-1.652,0-3.27,1.022-4.848,3.074v13.733h-3.416V18.955h3.416v2.438c1.615-1.917,3.406-2.873,5.369-2.873 c2.807,0,4.596,1.156,5.367,3.47c1.275-1.508,2.363-2.461,3.252-2.865c0.893-0.403,1.768-0.604,2.623-0.604 c3.926,0,5.893,2.355,5.893,7.064V38.128L163.863,38.128z"/>
<path d="M171.82,15.321h-3.416v-3.687h3.416V15.321L171.82,15.321z M171.82,38.128h-3.416V18.955h3.416V38.128 L171.82,38.128z"/>
<path d="M179.889,21.394c1.699-1.917,3.611-2.873,5.729-2.873c4.324,0,6.488,2.355,6.488,7.064v12.543h-3.414 V25.73c0-1.566-0.281-2.692-0.84-3.381c-0.561-0.686-1.482-1.028-2.758-1.028c-1.734,0-3.467,1.022-5.205,3.074v13.733h-3.414 V18.955h3.414V21.394L179.889,21.394L179.889,21.394z"/>
<path d="M204.838,38.58c-2.818,0-5.084-0.885-6.795-2.648c-1.711-1.766-2.566-4.223-2.566-7.381 c0-3.132,0.828-5.587,2.482-7.362c1.658-1.777,3.824-2.667,6.5-2.667c2.732,0,4.918,0.872,6.549,2.62 c1.631,1.747,2.449,4.219,2.449,7.409v0.812H199.02c0.145,2.218,0.754,3.862,1.836,4.936c1.076,1.072,2.402,1.607,3.982,1.607 c1.191,0,2.268-0.303,3.227-0.912c0.955-0.606,1.461-1.474,1.504-2.594h3.525c-0.262,1.976-1.156,3.5-2.682,4.574 C208.889,38.041,207.027,38.58,204.838,38.58L204.838,38.58L204.838,38.58z M209.861,26.688c-0.277-1.845-0.896-3.222-1.863-4.138 c-0.963-0.914-2.143-1.374-3.539-1.374c-1.363,0-2.531,0.457-3.508,1.365s-1.596,2.294-1.859,4.146H209.861L209.861,26.688 L209.861,26.688z"/>
<path d="M226.857,22.063c-0.482-0.145-1.176-0.217-2.076-0.217c-1.738,0-3.223,0.911-4.467,2.728v13.555h-3.416 V18.955h3.416v2.676c1.436-2.073,3.1-3.11,4.988-3.11c0.482,0,0.998,0.048,1.555,0.146V22.063L226.857,22.063L226.857,22.063z"/>
<polygon points="245.674,18.955 238.428,38.128 235.391,38.128 228.146,18.955 231.832,18.955 236.912,33.954  241.986,18.955 245.674,18.955"/>
<path d="M259.139,36.158c-1.732,1.613-3.971,2.422-6.701,2.422c-1.904,0-3.473-0.516-4.703-1.547 c-1.227-1.029-1.84-2.357-1.84-3.982c0-4.483,3.861-6.725,11.582-6.725h1.662c0-1.371-0.072-2.368-0.217-2.99 c-0.143-0.618-0.549-1.134-1.211-1.546c-0.662-0.407-1.715-0.613-3.16-0.613c-3.039,0-4.604,1.084-4.699,3.252h-3.396 c0.25-3.938,3.012-5.908,8.275-5.908c2.459,0,4.375,0.488,5.746,1.463c1.371,0.976,2.061,2.893,2.061,5.747v12.398h-3.398V36.158 L259.139,36.158L259.139,36.158z M259.139,33.084v-4.247h-2.328c-4.941,0-7.41,1.344-7.41,4.033c0,0.975,0.361,1.724,1.084,2.248 c0.725,0.524,1.699,0.786,2.926,0.786c1.121,0,2.207-0.25,3.256-0.757C257.711,34.639,258.537,33.954,259.139,33.084 L259.139,33.084L259.139,33.084z"/>
</g><g fill="#65b32e">
<path d="M261.104,49.744c-0.955-0.959-2.104-1.439-3.443-1.439s-2.488,0.48-3.445,1.439 c-0.955,0.955-1.436,2.104-1.436,3.438c0,1.342,0.48,2.488,1.436,3.445c0.957,0.955,2.105,1.436,3.445,1.436 s2.488-0.48,3.443-1.436c0.957-0.957,1.434-2.104,1.434-3.445C262.537,51.847,262.061,50.699,261.104,49.744L261.104,49.744z  M260.613,56.138c-0.822,0.82-1.805,1.232-2.953,1.232c-1.16,0-2.146-0.41-2.963-1.229c-0.816-0.82-1.227-1.807-1.227-2.961 c0-1.148,0.41-2.131,1.234-2.953c0.82-0.822,1.807-1.232,2.955-1.232c1.154,0,2.137,0.41,2.957,1.229 c0.818,0.82,1.229,1.805,1.229,2.957S261.436,55.316,260.613,56.138L260.613,56.138z M258.785,53.41 c0.379-0.113,0.65-0.313,0.828-0.588c0.176-0.277,0.266-0.564,0.266-0.867c0-0.402-0.162-0.773-0.482-1.105 c-0.324-0.334-0.807-0.498-1.453-0.498h-2.4v5.67h0.838v-2.416h1.561l1.092,2.416h0.926L258.785,53.41L258.785,53.41z  M256.381,51.056h1.563c0.301,0,0.553,0.074,0.75,0.223c0.197,0.15,0.299,0.373,0.299,0.662c0,0.281-0.096,0.52-0.281,0.711 c-0.188,0.193-0.475,0.291-0.855,0.291h-1.475V51.056L256.381,51.056z"/>
<path d="M141.359,51.052c1.52-1.822,3.346-2.73,5.477-2.73c2.506,0,4.449,0.889,5.82,2.666 c1.373,1.779,2.063,4.178,2.063,7.201c0,3.145-0.77,5.629-2.305,7.455c-1.539,1.826-3.475,2.736-5.814,2.736 c-2.07,0-3.818-0.645-5.24-1.934v1.482h-3.416v-26.49h3.416V51.052L141.359,51.052L141.359,51.052z M141.359,63.376 c1.461,1.555,3.137,2.328,5.027,2.328c1.467,0,2.637-0.627,3.506-1.887c0.865-1.26,1.301-3.135,1.301-5.629 c0-2.363-0.41-4.154-1.23-5.377c-0.818-1.225-1.965-1.834-3.434-1.834c-1.891,0-3.613,1.098-5.17,3.291V63.376L141.359,63.376 L141.359,63.376z"/>
<path d="M161.572,45.125h-3.412v-3.686h3.412V45.125L161.572,45.125z M161.572,67.929h-3.412V48.757h3.412V67.929 L161.572,67.929z"/>
<path d="M174,48.322c2.732,0,4.918,0.875,6.551,2.619c1.631,1.75,2.447,4.219,2.447,7.41 c0,3.182-0.816,5.648-2.447,7.398c-1.633,1.756-3.818,2.631-6.551,2.631c-2.723,0-4.902-0.875-6.533-2.631 c-1.633-1.75-2.449-4.217-2.449-7.398c0-3.191,0.816-5.66,2.449-7.41C169.098,49.197,171.277,48.322,174,48.322L174,48.322 L174,48.322z M174,65.705c1.623,0,2.943-0.615,3.957-1.85c1.012-1.238,1.518-3.07,1.518-5.504c0-2.443-0.506-4.283-1.518-5.521 c-1.014-1.234-2.334-1.852-3.957-1.852c-1.629,0-2.945,0.617-3.957,1.852c-1.012,1.238-1.52,3.078-1.52,5.521 c0,2.434,0.508,4.266,1.52,5.504C171.055,65.089,172.371,65.705,174,65.705L174,65.705L174,65.705z"/>
<polygon points="189.855,67.929 186.439,67.929 186.439,41.439 189.855,41.439 189.855,67.929"/>
<path d="M206.654,65.958c-1.734,1.617-3.971,2.422-6.703,2.422c-1.904,0-3.471-0.516-4.703-1.547 c-1.227-1.027-1.838-2.357-1.838-3.982c0-4.48,3.863-6.721,11.58-6.721h1.664c0-1.375-0.072-2.371-0.215-2.994 c-0.148-0.617-0.551-1.133-1.215-1.543s-1.713-0.615-3.162-0.615c-3.033,0-4.602,1.086-4.697,3.254h-3.396 c0.252-3.939,3.012-5.91,8.277-5.91c2.459,0,4.371,0.488,5.742,1.465c1.375,0.973,2.063,2.891,2.063,5.748v12.395h-3.396V65.958 L206.654,65.958L206.654,65.958z M206.654,62.884V58.64h-2.332c-4.941,0-7.406,1.344-7.406,4.031c0,0.975,0.361,1.725,1.082,2.248 c0.725,0.527,1.697,0.785,2.926,0.785c1.121,0,2.207-0.25,3.256-0.758C205.225,64.443,206.053,63.757,206.654,62.884 L206.654,62.884L206.654,62.884z"/>
<path d="M218.139,51.052c1.518-1.822,3.346-2.73,5.479-2.73c2.502,0,4.441,0.889,5.816,2.666 c1.373,1.779,2.059,4.178,2.059,7.201c0,3.145-0.766,5.629-2.305,7.455c-1.533,1.826-3.473,2.736-5.811,2.736 c-2.07,0-3.814-0.645-5.238-1.934v1.482h-3.416v-26.49h3.416V51.052L218.139,51.052L218.139,51.052z M218.139,63.376 c1.457,1.555,3.133,2.328,5.023,2.328c1.469,0,2.641-0.627,3.504-1.887c0.869-1.26,1.305-3.135,1.305-5.629 c0-2.363-0.41-4.154-1.23-5.377c-0.818-1.225-1.965-1.834-3.432-1.834c-1.893,0-3.615,1.098-5.17,3.291V63.376L218.139,63.376 L218.139,63.376z"/>
<path d="M241.787,68.38c-5.244,0-7.982-2.059-8.225-6.182h3.416c0.023,2.34,1.615,3.506,4.77,3.506 c1.41,0,2.484-0.289,3.227-0.875c0.742-0.584,1.111-1.314,1.111-2.195c0-0.867-0.359-1.48-1.086-1.834 c-0.723-0.354-2.213-0.816-4.471-1.385c-2.26-0.566-3.91-1.195-4.953-1.895c-1.041-0.699-1.561-1.93-1.561-3.688 c0-1.592,0.648-2.906,1.943-3.949c1.293-1.041,3.023-1.563,5.191-1.563c5.025,0,7.594,1.789,7.701,5.367h-3.395 c-0.123-1.807-1.48-2.711-4.068-2.711c-1.146,0-2.096,0.217-2.846,0.652c-0.756,0.434-1.131,1.064-1.131,1.895 c0,0.75,0.289,1.287,0.869,1.619c0.576,0.332,2.025,0.777,4.344,1.334c2.322,0.563,4.041,1.219,5.168,1.963 c1.127,0.748,1.693,2.037,1.693,3.867c0,1.748-0.697,3.197-2.094,4.348C246.004,67.806,244.135,68.38,241.787,68.38L241.787,68.38 L241.787,68.38z"/>
<path d="M119.123,38.097c-1.936-2.408-4.588-4.161-7.91-5.23c2.48-0.995,4.545-2.525,6.162-4.567 c2.264-2.862,3.41-6.276,3.41-10.139c0-4.077-1.123-7.686-3.34-10.721c-2.223-3.037-4.898-5.068-7.969-6.033 C106.51,0.471,102.738,0,98.283,0H76.465L71.9,0.017v53.334h12.68v-14.1h14.672c2.947,0,5.33,0.822,7.088,2.449 c1.762,1.627,2.619,3.662,2.619,6.225c0,2.689-0.838,4.76-2.564,6.324c-1.727,1.561-4.146,2.352-7.184,2.352H84.58V68.38h16.875 c7.209,0,12.656-1.855,16.182-5.518c3.514-3.65,5.295-8.219,5.295-13.572C122.932,45.007,121.652,41.24,119.123,38.097z M104.795,25.546c-1.584,1.625-3.697,2.413-6.465,2.413H84.58V11.292h13.508c2.461,0,4.631,0.672,6.451,2.001 c1.758,1.282,2.611,3.258,2.611,6.039C107.15,21.882,106.381,23.916,104.795,25.546z"/>
</g></svg>
